PathFileType	3	(X/Y/Z)	running_1__view1_aligned.trc
DataRate	CameraRate	NumFrames	NumMarkers	Units	OrigDataRate	OrigDataStartFrame	OrigNumFrames
100.0	100.0	15	19	mm	100.0	4224	6401
Frame#	Time	pelvis			neck			head			hip_left			hip_right			knee_left			knee_right			ankle_left			ankle_right			heel_left			heel_right			toe_left			toe_right			shoulder_left			shoulder_right			elbow_left			elbow_right			wrist_left			wrist_right			
		X1	Y1	Z1	X2	Y2	Z2	X3	Y3	Z3	X4	Y4	Z4	X5	Y5	Z5	X6	Y6	Z6	X7	Y7	Z7	X8	Y8	Z8	X9	Y9	Z9	X10	Y10	Z10	X11	Y11	Z11	X12	Y12	Z12	X13	Y13	Z13	X14	Y14	Z14	X15	Y15	Z15	X16	Y16	Z16	X17	Y17	Z17	X18	Y18	Z18	X19	Y19	Z19	
4224	42.23000	90.659939	943.687934	32.890042	58.630432	1470.186482	194.673595	68.435180	1557.672024	341.201197	164.514695	948.221032	25.682839	16.804851	939.154783	40.097571	174.238497	521.993083	25.218146	1.093879	550.831961	242.218973	150.273989	218.706132	-204.746952	-29.539318	228.280684	78.268919	144.206405	198.365747	-251.998344	-32.412599	199.159717	37.377662	143.653377	88.105167	-106.845374	-19.684377	135.389810	203.750848	233.971619	1458.630571	160.393417	-107.492391	1421.112370	134.724425	344.521626	1215.654373	128.124823	-203.869336	1204.409398	-19.586247	200.083389	1194.960732	300.654643	-170.065921	1009.921575	137.458828
4225	42.24000	87.295332	943.714308	35.648133	54.958184	1470.517223	197.017783	64.749460	1558.017989	343.415449	161.240135	948.202428	28.275110	13.350262	939.226144	43.021416	172.086355	522.528186	28.657031	-1.433136	550.527914	244.044548	146.542041	223.125089	-208.777370	-30.645837	224.208004	84.365165	139.975416	204.035729	-256.764078	-33.604845	193.784789	43.768683	141.531804	88.442539	-114.105838	-20.136852	134.180159	214.081353	230.126517	1459.386122	162.462807	-111.096864	1421.207057	137.427294	341.516966	1215.973352	130.558615	-207.950996	1204.556495	-16.676324	196.567255	1195.572337	304.741265	-174.785639	1008.720039	139.594566
4226	42.25000	83.930725	943.740681	38.406225	51.285937	1470.847963	199.361972	61.063740	1558.363953	345.629701	157.965575	948.183824	30.867381	9.895673	939.297505	45.945262	169.934213	523.063289	32.095916	-3.960150	550.223867	245.870123	142.810094	227.544047	-212.807787	-31.752357	220.135325	90.461411	135.744427	209.705710	-261.529812	-34.797092	188.409861	50.159705	139.410232	88.779911	-121.366302	-20.589327	132.970508	224.411858	226.281415	1460.141673	164.532198	-114.701337	1421.301744	140.130164	338.512305	1216.292332	132.992406	-212.032656	1204.703593	-13.766401	193.051120	1196.183943	308.827888	-179.505357	1007.518503	141.730305
4227	42.26000	80.566118	943.767054	41.164316	47.613689	1471.178704	201.706161	57.378020	1558.709918	347.843953	154.691015	948.165220	33.459652	6.441084	939.368866	48.869107	167.782070	523.598391	35.534801	-6.487165	549.919820	247.695697	139.078146	231.963004	-216.838205	-32.858877	216.062645	96.557656	131.513439	215.375692	-266.295545	-35.989339	183.034933	56.550727	137.288659	89.117282	-128.626767	-21.041802	131.760857	234.742363	222.436313	1460.897224	166.601588	-118.305810	1421.396431	142.833033	335.507645	1216.611312	135.426198	-216.114316	1204.850690	-10.856478	189.534985	1196.795549	312.914510	-184.225076	1006.316967	143.866043
4228	42.27000	77.201510	943.793427	43.922407	43.941442	1471.509445	204.050350	53.692300	1559.055882	350.058206	151.416455	948.146616	36.051923	2.986495	939.440226	51.792952	165.629928	524.133494	38.973686	-9.014180	549.615773	249.521272	135.346199	236.381961	-220.868623	-33.965396	211.989965	102.653902	127.282450	221.045674	-271.061279	-37.181585	177.660004	62.941749	135.167087	89.454654	-135.887231	-21.494277	130.551207	245.072868	218.591211	1461.652775	168.670978	-121.910283	1421.491118	145.535902	332.502985	1216.930292	137.859990	-220.195977	1204.997788	-7.946555	186.018850	1197.407154	317.001133	-188.944794	1005.115431	146.001782
4229	42.28000	73.836903	943.819800	46.680499	40.269194	1471.840186	206.394538	50.006579	1559.401846	352.272458	148.141895	948.128012	38.644194	-0.468094	939.511587	54.716798	163.477786	524.668597	42.412571	-11.541195	549.311726	251.346847	131.614251	240.800919	-224.899041	-35.071916	207.917286	108.750148	123.051462	226.715656	-275.827013	-38.373832	172.285076	69.332771	133.045514	89.792026	-143.147695	-21.946752	129.341556	255.403372	214.746109	1462.408326	170.740368	-125.514756	1421.585805	148.238772	329.498324	1217.249271	140.293781	-224.277637	1205.144885	-5.036632	182.502715	1198.018760	321.087756	-193.664512	1003.913895	148.137520
4230	42.29000	70.472296	943.846173	49.438590	36.596947	1472.170927	208.738727	46.320859	1559.747811	354.486710	144.867335	948.109409	41.236465	-3.922683	939.582948	57.640643	161.325643	525.203700	45.851456	-14.068210	549.007679	253.172421	127.882303	245.219876	-228.929458	-36.178436	203.844606	114.846393	118.820473	232.385638	-280.592747	-39.566079	166.910148	75.723792	130.923942	90.129398	-150.408160	-22.399227	128.131905	265.733877	210.901007	1463.163877	172.809758	-129.119229	1421.680493	150.941641	326.493664	1217.568251	142.727573	-228.359297	1205.291983	-2.126709	178.986581	1198.630365	325.174378	-198.384231	1002.712360	150.273259
4231	42.30000	67.107689	943.872546	52.196681	32.924699	1472.501667	211.082916	42.635139	1560.093775	356.700962	141.592775	948.090805	43.828736	-7.377271	939.654309	60.564489	159.173501	525.738802	49.290341	-16.595225	548.703632	254.997996	124.150356	249.638834	-232.959876	-37.284955	199.771926	120.942639	114.589484	238.055620	-285.358481	-40.758325	161.535220	82.114814	128.802369	90.466769	-157.668624	-22.851702	126.922254	276.064382	207.055905	1463.919428	174.879148	-132.723702	1421.775180	153.644511	323.489003	1217.887231	145.161365	-232.440957	1205.439080	0.783214	175.470446	1199.241971	329.261001	-203.103949	1001.510824	152.408997
4232	42.31000	63.743082	943.898919	54.954773	29.252452	1472.832408	213.427104	38.949419	1560.439739	358.915215	138.318215	948.072201	46.421007	-10.831860	939.725670	63.488334	157.021359	526.273905	52.729226	-19.122240	548.399586	256.823571	120.418408	254.057791	-236.990294	-38.391475	195.699246	127.038885	110.358496	243.725602	-290.124215	-41.950572	156.160292	88.505836	126.680796	90.804141	-164.929088	-23.304177	125.712604	286.394887	203.210803	1464.674979	176.948538	-136.328175	1421.869867	156.347380	320.484343	1218.206211	147.595156	-236.522618	1205.586178	3.693137	171.954311	1199.853577	333.347623	-207.823667	1000.309288	154.544736
4233	42.32000	60.378474	943.925292	57.712864	25.580205	1473.163149	215.771293	35.263699	1560.785704	361.129467	135.043655	948.053597	49.013278	-14.286449	939.797030	66.412179	154.869216	526.809008	56.168111	-21.649255	548.095539	258.649145	116.686461	258.476748	-241.020711	-39.497995	191.626567	133.135131	106.127507	249.395584	-294.889948	-43.142818	150.785363	94.896858	124.559224	91.141513	-172.189553	-23.756652	124.502953	296.725392	199.365701	1465.430530	179.017929	-139.932648	1421.964554	159.050249	317.479683	1218.525191	150.028948	-240.604278	1205.733276	6.603060	168.438176	1200.465182	337.434246	-212.543386	999.107752	156.680474
4234	42.33000	57.013867	943.951665	60.470955	21.907957	1473.493890	218.115482	31.577978	1561.131668	363.343719	131.769095	948.034993	51.605549	-17.741038	939.868391	69.336025	152.717074	527.344111	59.606996	-24.176270	547.791492	260.474720	112.954513	262.895706	-245.051129	-40.604514	187.553887	139.231376	101.896518	255.065566	-299.655682	-44.335065	145.410435	101.287879	122.437651	91.478884	-179.450017	-24.209127	123.293302	307.055897	195.520599	1466.186082	181.087319	-143.537121	1422.059241	161.753119	314.475022	1218.844170	152.462740	-244.685938	1205.880373	9.512983	164.922041	1201.076788	341.520868	-217.263104	997.906216	158.816213
4235	42.34000	54.364039	945.729188	63.446841	18.532359	1475.580549	220.784904	28.784546	1562.891272	365.745169	129.194098	949.769524	54.701979	-20.465728	941.688901	72.191401	151.341507	529.310273	64.948958	-27.970122	548.284055	256.446154	111.963378	265.167673	-236.631863	-43.844299	185.174992	136.120302	100.984894	257.375174	-290.911363	-47.458244	142.734484	98.057611	120.984498	93.974903	-171.674883	-27.122529	120.499230	304.662636	191.452779	1469.388225	182.777109	-146.787401	1423.512789	165.950305	310.694895	1224.976107	149.483375	-247.694683	1206.553840	17.155080	164.394784	1203.005250	337.365066	-217.829861	1001.680612	165.920624
4236	42.35000	51.714211	947.506711	66.422728	15.156761	1477.667208	223.454327	25.991113	1564.650877	368.146618	126.619100	951.504054	57.798410	-23.190418	943.509412	75.046777	149.965939	531.276436	70.290919	-31.763974	548.776618	252.417588	110.972243	267.439640	-228.212598	-47.084084	182.796097	133.009228	100.073270	259.684783	-282.167043	-50.581424	140.058533	94.827342	119.531345	96.470922	-163.899749	-30.035931	117.705157	302.269375	187.384958	1472.590368	184.466900	-150.037681	1424.966338	170.147491	306.914767	1231.108044	146.504011	-250.703427	1207.227307	24.797177	163.867526	1204.933711	333.209264	-218.396618	1005.455009	173.025034
4237	42.36000	49.064383	949.284234	69.398614	11.781163	1479.753868	226.123750	23.197680	1566.410481	370.548067	124.044103	953.238585	60.894841	-25.915107	945.329922	77.902154	148.590372	533.242598	75.632881	-35.557825	549.269181	248.389022	109.981108	269.711607	-219.793332	-50.323868	180.417202	129.898154	99.161647	261.994392	-273.422724	-53.704603	137.382582	91.597073	118.078192	98.966941	-156.124615	-32.949333	114.911085	299.876115	183.317138	1475.792512	186.156690	-153.287961	1426.419886	174.344677	303.134640	1237.239981	143.524646	-253.712171	1207.900773	32.439275	163.340268	1206.862173	329.053462	-218.963375	1009.229405	180.129445
4238	42.37000	46.414555	951.061757	72.374500	8.405565	1481.840527	228.793172	20.404248	1568.170085	372.949517	121.469105	954.973115	63.991271	-28.639797	947.150432	80.757530	147.214805	535.208761	80.974842	-39.351677	549.761744	244.360456	108.989973	271.983575	-211.374066	-53.563653	178.038307	126.787079	98.250023	264.304001	-264.678404	-56.827782	134.706631	88.366804	116.625038	101.462960	-148.349481	-35.862736	112.117012	297.482854	179.249317	1478.994655	187.846481	-156.538241	1427.873435	178.541864	299.354513	1243.371918	140.545282	-256.720916	1208.574240	40.081372	162.813010	1208.790635	324.897660	-219.530132	1013.003802	187.233856
